<svg xmlns="http://www.w3.org/2000/svg" viewBox="0 0 32 32" id="beat">
  <path fill="#6b7eb5" d="M15 9.9h2V16h-2z"></path>
  <path fill="#ff7d97" d="M19.18 15h-6.36A5.9 5.9 0 0 0 7 21a6 6 0 0 0 3.31 5.37c2.76 1.37 4.52 2.8 4.71 3.85a1 1 0 0 0 2 0c.19-1.05 1.95-2.48 4.71-3.85A6 6 0 0 0 25 21a5.9 5.9 0 0 0-5.82-6Z"></path>
  <path fill="#ff5d7d" d="M17 29.18c-.19-1.05-1.95-2.48-4.71-3.85a6 6 0 0 1-1-10.12A5.94 5.94 0 0 0 7 21a6 6 0 0 0 3.31 5.37c2.76 1.37 4.52 2.8 4.71 3.85a1 1 0 0 0 2 0 2 2 0 0 1 .25-.57.92.92 0 0 1-.27-.47Z"></path>
  <path fill="#a0e5a5" d="M30.8 1.4A1 1 0 0 0 30 1c-6.27.13-10.69 1.57-13.12 4.28A6.67 6.67 0 0 0 15 10a1 1 0 0 0 .56.81A11 11 0 0 0 20.35 12a8.49 8.49 0 0 0 3.36-.69c5.05-2.19 7.16-8.73 7.24-9a1 1 0 0 0-.15-.91Z"></path>
  <path fill="#89df8f" d="M17.86 7.28C20.25 4.61 24.58 3.18 30.7 3c.15-.4.24-.66.25-.71A1 1 0 0 0 30 1c-6.27.13-10.69 1.57-13.12 4.28A6.67 6.67 0 0 0 15 10a1 1 0 0 0 .56.81c.16.08.33.14.49.21a7.06 7.06 0 0 1 1.81-3.74Z"></path>
  <path fill="#a0e5a5" d="M15.14 5.28C12.71 2.57 8.29 1.13 2 1a1 1 0 0 0-.82.4 1 1 0 0 0-.15.9c.08.28 2.19 6.82 7.24 9a8.49 8.49 0 0 0 3.36.69 11 11 0 0 0 4.78-1.2A1 1 0 0 0 17 10a6.67 6.67 0 0 0-1.86-4.72Z"></path>
  <path fill="#89df8f" d="M15.14 5.28C12.71 2.57 8.29 1.13 2 1a1 1 0 0 0-.82.4 1 1 0 0 0-.15.9c0 .05.1.31.25.71 6.12.17 10.45 1.6 12.84 4.27A7.06 7.06 0 0 1 15.94 11c.16-.07.33-.13.49-.21A1 1 0 0 0 17 10a6.67 6.67 0 0 0-1.86-4.72Z"></path>
</svg>