<svg xmlns="http://www.w3.org/2000/svg" viewBox="0 0 512 512" id="cat">
  <circle cx="256" cy="256" r="256" fill="#ecb13a"></circle>
  <circle cx="250.2" cy="244" r="242.5" fill="#ffde4f"></circle>
  <path fill="#645033" d="M409.7 219.5c-2.1 0-4.2-.8-5.8-2.4-20.1-20.1-52.9-20.1-73 0-3.2 3.2-8.5 3.2-11.7 0-3.2-3.2-3.2-8.5 0-11.7 26.6-26.6 69.8-26.6 96.4 0 3.2 3.2 3.2 8.5 0 11.7-1.6 1.6-3.8 2.4-5.9 2.4zm-305 0c-2.1 0-4.2-.8-5.8-2.4-3.2-3.2-3.2-8.5 0-11.7 12.9-12.9 30-20 48.2-20s35.3 7.1 48.2 20c3.2 3.2 3.2 8.5 0 11.7-3.2 3.2-8.5 3.2-11.7 0-9.8-9.8-22.7-15.1-36.5-15.1s-26.8 5.4-36.5 15.1c-1.7 1.6-3.8 2.4-5.9 2.4zm111 124.9c-17.5 0-34.9-6.6-48.2-19.9-3.2-3.2-3.2-8.5 0-11.7 3.2-3.2 8.5-3.2 11.7 0 20.1 20.1 52.9 20.1 73 0 3.2-3.2 8.5-3.2 11.7 0s3.2 8.5 0 11.7c-13.3 13.3-30.8 19.9-48.2 19.9z"></path>
  <path fill="#645033" d="M302.1 344.4c-17.5 0-34.9-6.6-48.2-19.9-3.2-3.2-3.2-8.5 0-11.7 3.2-3.2 8.5-3.2 11.7 0 20.1 20.1 52.9 20.1 73 0 3.2-3.2 8.5-3.2 11.7 0s3.2 8.5 0 11.7c-13.3 13.3-30.7 19.9-48.2 19.9z"></path>
</svg>