<svg xmlns="http://www.w3.org/2000/svg" viewBox="0 0 32 32" id="mushroom">
  <path fill="#798bc6" d="m24.24 24.7-1.86-2.53A1.94 1.94 0 0 1 22 21v-9a1 1 0 0 0-1-1H11a1 1 0 0 0-1 1v9a1.94 1.94 0 0 1-.38 1.16L7.77 24.7A3.86 3.86 0 0 0 7 27a4 4 0 0 0 4 4h10a4 4 0 0 0 4-4 3.92 3.92 0 0 0-.76-2.3Z"></path>
  <path fill="#6b7eb5" d="M9 27a3.86 3.86 0 0 1 .77-2.34l1.85-2.53A1.94 1.94 0 0 0 12 21v-9a1 1 0 0 1 1-1h-2a1 1 0 0 0-1 1v9a1.94 1.94 0 0 1-.38 1.16L7.77 24.7A3.86 3.86 0 0 0 7 27a4 4 0 0 0 4 4h2a4 4 0 0 1-4-4Z"></path>
  <path fill="#ffcd69" d="M28.66 6.24a17.91 17.91 0 0 0-25.32 0A8 8 0 0 0 1 11.9 5.11 5.11 0 0 0 6.1 17h3.23a5.23 5.23 0 0 0 1.67-.26 16 16 0 0 1 10.1 0 5.23 5.23 0 0 0 1.62.26h3.18a5.11 5.11 0 0 0 5.1-5.1 8 8 0 0 0-2.34-5.66Z"></path>
  <path fill="#ffc144" d="M3 13.9a8 8 0 0 1 2.34-5.66 17.91 17.91 0 0 1 24-1.16 9.41 9.41 0 0 0-.72-.84 17.91 17.91 0 0 0-25.32 0A8 8 0 0 0 1 11.9a5.09 5.09 0 0 0 2.65 4.45A5.09 5.09 0 0 1 3 13.9Z"></path>
</svg>