<svg xmlns="http://www.w3.org/2000/svg" xml:space="preserve" viewBox="0 0 48 48" id="orange">
  <symbol id="New_Symbol_14" viewBox="-6.5 -6.5 13 13">
    <path fill="#FFD4C3" stroke="#504B46" stroke-linecap="round" stroke-linejoin="round" stroke-miterlimit="10" d="M0-6c2.2 0 4.1 1.5 4.7 3.5C6.3-2.5 6.4 0 5 0v1c0 2.8-2.2 5-5 5s-5-2.2-5-5V0c-1.4 0-1.3-2.5.2-2.5C-4.1-4.5-2.2-6 0-6z" style="fill:#ffd4c3;stroke:#504b46;stroke-linecap:round;stroke-linejoin:round;stroke-miterlimit:10"></path>
    <circle cx="-1.6" cy="-.1" r=".1" style="fill:#ffc258"></circle>
    <path d="M-1.6.5c-.3 0-.6-.3-.6-.6s.2-.7.6-.7c.3 0 .6.3.6.7s-.3.6-.6.6z" style="fill:#4f4b45"></path>
    <circle cx="1.6" cy="-.1" r=".1" style="fill:#ffc258"></circle>
    <path d="M1.6.5C1.3.5 1 .2 1-.1s.3-.6.6-.6.6.3.6.6-.2.6-.6.6z" style="fill:#4f4b45"></path>
    <circle cx="-3" cy="-1.5" r=".5" style="fill:#fabfa5"></circle>
    <circle cx="3" cy="-1.5" r=".5" style="fill:#fabfa5"></circle>
    <path fill="none" stroke="#504B46" stroke-linecap="round" stroke-linejoin="round" stroke-miterlimit="10" d="M-1.2-3c.8-.5 1.7-.5 2.5 0" style="fill:none;stroke:#504b46;stroke-linecap:round;stroke-linejoin:round;stroke-miterlimit:10"></path>
  </symbol>
  <g id="Icons">
    <g id="XMLID_1970_">
      <ellipse id="XMLID_2498_" cx="24" cy="44.8" fill="#45413C" opacity=".15" rx="12" ry="1.6" style="opacity:.15;fill:#45413c"></ellipse>
      <circle id="XMLID_2497_" cx="24" cy="28.1" r="16.7" fill="#FFAA54" style="fill:#ffaa54"></circle>
      <path id="XMLID_2496_" fill="#FC9" d="M24 15.6c8.5 0 15.6 6.4 16.6 14.6.1-.7.1-1.4.1-2.1 0-9.2-7.5-16.7-16.7-16.7S7.3 18.9 7.3 28.1c0 .7.1 1.4.1 2.1 1-8.3 8.1-14.6 16.6-14.6z" style="fill:#fc9"></path>
      <circle id="XMLID_2495_" cx="24" cy="28.1" r="16.7" style="fill:none;stroke:#45413c;stroke-linecap:round;stroke-linejoin:round;stroke-miterlimit:10"></circle>
      <path id="XMLID_2494_" d="M15.6 14s-2.7-3.3-.9-6.9 1.7-5.5 1.7-5.5 4.6 1.3 4.4 6c-.2 4.7-5.2 6.4-5.2 6.4z" style="fill:#6dd627"></path>
      <path id="XMLID_2493_" d="M16.3 8.8c1.8-3.1 2.3-5.1 2.4-5.9-1.1-.9-2.3-1.2-2.3-1.2s.1 2-1.7 5.5c-1.8 3.6.9 6.9.9 6.9s.1 0 .1-.1c-.5-1.5-.6-3.3.6-5.2z" style="fill:#9ceb60"></path>
      <path id="XMLID_2492_" d="M15.6 14s-2.7-3.3-.9-6.9 1.7-5.5 1.7-5.5 4.6 1.3 4.4 6c-.2 4.7-5.2 6.4-5.2 6.4z" style="fill:none;stroke:#45413c;stroke-linecap:round;stroke-linejoin:round;stroke-miterlimit:10"></path>
      <path id="XMLID_2491_" d="M17 16.3c-.2.2-.5.4-.9.6-.4.2-.7.3-1 .4-.3-.4-1.4-2.2-3.3-2.9-2.5-.9-3.1 2.2-3.5-1.1-.3-3.3 2-3.9 5.2-1.5 2.2 1.7 3.2 3.9 3.5 4.5z" style="fill:#6dd627"></path>
      <path id="XMLID_2490_" d="M17 16.3c-.2.2-.4.4-.8.6-.6-.9-1.5-2-2.7-3-2.6-2-4.7-2-5.1-.1 0-.2-.1-.3-.1-.5-.3-3.3 2-3.9 5.2-1.5 2.2 1.7 3.2 3.9 3.5 4.5z" style="fill:#9ceb60"></path>
      <path id="XMLID_2489_" d="M17 16.3c-.2.2-.5.4-.9.6-.4.2-.7.3-1 .4-.3-.4-1.4-2.2-3.3-2.9-2.5-.9-3.1 2.2-3.5-1.1-.3-3.3 2-3.9 5.2-1.5 2.2 1.7 3.2 3.9 3.5 4.5z" style="fill:none;stroke:#45413c;stroke-linecap:round;stroke-linejoin:round;stroke-miterlimit:10"></path>
      <path id="XMLID_2488_" d="M14 17.4s.5.3 2.1-.5 1.6-2.1 1.6-2.1" style="fill:none;stroke:#45413c;stroke-linecap:round;stroke-linejoin:round;stroke-miterlimit:10"></path>
      <path id="XMLID_2487_" d="M15.6 14s-.6-4.2.9-6.2" style="fill:none;stroke:#45413c;stroke-linecap:round;stroke-linejoin:round;stroke-miterlimit:10"></path>
    </g>
  </g>
</svg>