<svg xmlns="http://www.w3.org/2000/svg" viewBox="0 0 128 128" id="strawberry">
  <path fill="#db2e40" d="M38.0088,32.2205a63.2138,63.2138,0,0,0-10.2823,2.3757c-4.1542,1.5544-12.4033,5.7648-10.8357,25.2927,1.8685,23.276,27.38,59.9111,47.5715,60.157h-.9246c20.191-.2459,45.703-36.881,47.5715-60.157,1.5676-19.5279-6.6815-23.7383-10.8357-25.2927a53.5308,53.5308,0,0,0-8.1971-2.01Z"></path>
  <path fill="#4a995c" d="M62.9868,27.8014c-3.3864-.3435-8.0031-2.7662-13.71-3.451-6.1468-.7376-15.0014,1.0561-15.0014,1.0561,4.414.6422,8.6,1.798,12.0073,4.7026,0,0-6.8854-2.0152-11.7555-.084a81.159,81.159,0,0,1-10.8319,3.1908A125.748,125.748,0,0,0,40.18,36.4489c8.36.9835,10.5726-.7376,10.5726-.7376s-5.2673,2.8911-6.9884,6.8251a21.1976,21.1976,0,0,0-1.6794,7.809,21.96,21.96,0,0,1,10.2441-7.1373,17.7875,17.7875,0,0,0,7.7669-5.038s-1.2294,3.6881.7376,9.589,5.4092,7.13,5.4092,7.13a17.6235,17.6235,0,0,1,1.7884-7.4828c1.8967-4.0408-.6295-9.2365-.6295-9.2365a17.7876,17.7876,0,0,0,7.7668,5.038,21.96,21.96,0,0,1,10.2441,7.1373,21.1963,21.1963,0,0,0-1.6793-7.809c-1.7212-3.934-6.9884-6.8251-6.9884-6.8251s2.2128,1.7211,10.5725.7376a125.7515,125.7515,0,0,0,16.4843-3.233,81.1544,81.1544,0,0,1-10.8319-3.1908c-4.87-1.9312-11.7556.084-11.7556.084,3.4078-2.9046,7.5933-4.06,12.0073-4.7026,0,0-8.8546-1.7937-15.0014-1.0561-4.7208.5665-8.6957,2.3223-11.8452,3.1064Z"></path>
  <path fill="#c61e32" d="M64.4623,120.0458c-.1529-.0019-.3088-.025-.4623-.031-.1535.006-.3094.0291-.4623.031Z"></path>
  <path fill="#c61e32" d="M105.9554,38.1486a53.8462,53.8462,0,0,1-.2063,5.4571c-2.0412,23.6159-29.7127,60.664-51.8562,61.47.1689.0061.3405.03.5088.0317H53.384c.1683-.0019.34-.0256.5089-.0317-7.7858-.2833-16.2485-5.0433-24.0471-12.1316,9.497,14.5683,22.6428,26.62,34.1542,27.071,20.1165-.7882,45.2549-37.0262,47.1092-60.1259C112.0875,47.7021,109.2424,41.4816,105.9554,38.1486Z"></path>
  <path fill="#3d7546" d="M64.69,32.852a39.5183,39.5183,0,0,1,2.6187-8.1859c2.6846-6.28,8.3605-12.0539,8.3605-12.0539L71.65,8.3827A55.2738,55.2738,0,0,0,64.3174,23.022a69.2364,69.2364,0,0,0-2.3559,9.9244Z"></path>
  <path fill="#32663c" d="M74.0445,10.9023C72.5231,12.6774,67.8872,18.37,65.59,24.3786a47.775,47.775,0,0,0-2.4666,8.5276L64.69,32.852a39.5135,39.5135,0,0,1,2.6187-8.1859c2.6845-6.28,8.3606-12.0539,8.3606-12.0539Z"></path>
  <path fill="#ff8c00" d="M64 113a1 1 0 01-1-1v-3.5713a1 1 0 112 0V112A1 1 0 0164 113zM56.7979 113.0869a1.0006 1.0006 0 01-.9883-.8555l-.5406-3.7041a1 1 0 011.98-.289l.5406 3.7041a1 1 0 01-.8453 1.1338A.9228.9228 0 0156.7979 113.0869zM55.8574 100.6953a1.0006 1.0006 0 01-.9883-.8555l-.5405-3.7041a1 1 0 011.98-.289l.54 3.7041a1 1 0 01-.8452 1.1338A.9232.9232 0 0155.8574 100.6953zM54.917 88.3037a1.0006 1.0006 0 01-.9883-.8555l-.5405-3.7041a1 1 0 011.98-.289l.5405 3.7041a1 1 0 01-.8452 1.1338A.924.924 0 0154.917 88.3037zM53.9766 75.9121a1.0006 1.0006 0 01-.9883-.8555l-.5405-3.7041a1 1 0 011.9794-.289l.5406 3.7041a1 1 0 01-.8452 1.1338A.9249.9249 0 0153.9766 75.9121zM53.0366 63.521a.9993.9993 0 01-.9878-.8555l-.5415-3.7041a1 1 0 011.979-.289l.5415 3.7041a1 1 0 01-.8452 1.1338A.9865.9865 0 0153.0366 63.521zM52.0962 52.1294a1 1 0 01-.9883-.8555L50.5674 47.57a1 1 0 111.98-.289l.5405 3.7041a1.0007 1.0007 0 01-.8452 1.1342A1.044 1.044 0 0152.0962 52.1294zM46.0425 97.8086a1.0006 1.0006 0 01-.9883-.8555l-.5405-3.7041a1 1 0 011.98-.289l.5405 3.7041a1 1 0 01-.8452 1.1338A.9249.9249 0 0146.0425 97.8086zM45.1021 85.417a1.0006 1.0006 0 01-.9883-.8555l-.5406-3.7041a1 1 0 011.98-.289l.5406 3.7041a1 1 0 01-.8453 1.1338A.9228.9228 0 0145.1021 85.417zM37.6426 92.916a1.0006 1.0006 0 01-.9883-.8555l-.5405-3.7041a1 1 0 011.98-.289l.5405 3.7041a1 1 0 01-.8452 1.1338A.9249.9249 0 0137.6426 92.916zM44.1616 73.0254a1.0006 1.0006 0 01-.9883-.8555l-.54-3.7041a1 1 0 011.9795-.289l.5405 3.7041a1 1 0 01-.8452 1.1337A.9117.9117 0 0144.1616 73.0254zM43.2212 60.6343a1 1 0 01-.9883-.8555l-.5405-3.7041a1 1 0 111.98-.2891l.5405 3.7041a1.0008 1.0008 0 01-.8452 1.1343A1.044 1.044 0 0143.2212 60.6343zM26.771 77.748a1.0006 1.0006 0 01-.9883-.8554l-.54-3.7041a1 1 0 011.9795-.2891l.5405 3.7041a1 1 0 01-.8452 1.1338A.924.924 0 0126.771 77.748zM35.2871 82.53a1.0006 1.0006 0 01-.9883-.8555l-.5405-3.7041a1 1 0 011.98-.2891l.5405 3.7041a1 1 0 01-.8452 1.1338A.9242.9242 0 0135.2871 82.53zM34.3467 70.1387a1.0006 1.0006 0 01-.9883-.8555l-.5405-3.7041a1 1 0 011.98-.2891l.54 3.7041a1 1 0 01-.8452 1.1338A.9251.9251 0 0134.3467 70.1387zM33.4063 57.7476a1 1 0 01-.9883-.8555l-.5406-3.7041a1 1 0 011.98-.2891l.5406 3.7041a1.0009 1.0009 0 01-.8453 1.1343A1.058 1.058 0 0133.4063 57.7476zM32.4658 45.356a1 1 0 01-.9883-.8555l-.54-3.7041a1 1 0 111.9795-.2891l.5405 3.7041a1.0008 1.0008 0 01-.8452 1.1343A1.0583 1.0583 0 0132.4658 45.356zM48.2773 106.8525a1.0005 1.0005 0 01-.9882-.8554l-.5406-3.7051a1 1 0 011.98-.2891l.5406 3.7051a1 1 0 01-.8453 1.1338A.9275.9275 0 0148.2773 106.8525zM24.5317 67.252a1.0005 1.0005 0 01-.9882-.8555l-.5406-3.7036a1 1 0 111.9795-.2891l.5405 3.7036a1 1 0 01-.8452 1.1338A.9234.9234 0 0124.5317 67.252zM23.5913 54.8608a1 1 0 01-.9883-.8554l-.5405-3.7041a1 1 0 011.98-.2891l.54 3.7041a1.0008 1.0008 0 01-.8452 1.1343A1.0592 1.0592 0 0123.5913 54.8608zM71.2021 113.0869a.9271.9271 0 01-.1459-.0107 1 1 0 01-.8453-1.1338l.5406-3.7041a1 1 0 011.98.289l-.5406 3.7041A1.0006 1.0006 0 0171.2021 113.0869zM72.1426 100.6953a.9275.9275 0 01-.146-.0107 1 1 0 01-.8452-1.1338l.5405-3.7041a1 1 0 011.98.289L73.1309 99.84A1.0006 1.0006 0 0172.1426 100.6953zM73.083 88.3037a.9284.9284 0 01-.146-.0107 1 1 0 01-.8452-1.1338l.54-3.7041a1 1 0 011.98.289l-.5405 3.7041A1.0006 1.0006 0 0173.083 88.3037zM74.0234 75.9121a.9293.9293 0 01-.146-.0107 1 1 0 01-.8452-1.1338l.5406-3.7041a1 1 0 011.9794.289l-.54 3.7041A1.0006 1.0006 0 0174.0234 75.9121zM74.9634 63.521a.9865.9865 0 01-.146-.0107 1 1 0 01-.8452-1.1338l.5415-3.7041a1 1 0 011.979.289l-.5415 3.7041A.9993.9993 0 0174.9634 63.521zM75.9038 52.1294a1.0494 1.0494 0 01-.146-.01 1.0007 1.0007 0 01-.8452-1.1342l.5405-3.7041a1 1 0 111.9795.289l-.54 3.7041A1 1 0 0175.9038 52.1294zM81.9575 97.8086a.9284.9284 0 01-.146-.0107 1 1 0 01-.8452-1.1338l.54-3.7041a.9882.9882 0 011.1343-.8448 1 1 0 01.8452 1.1338l-.54 3.7041A1.0006 1.0006 0 0181.9575 97.8086zM82.8979 85.417a.9271.9271 0 01-.1459-.0107 1 1 0 01-.8453-1.1338l.5406-3.7041a1 1 0 011.98.289l-.5406 3.7041A1.0006 1.0006 0 0182.8979 85.417zM90.3574 92.916a.9284.9284 0 01-.146-.0107 1 1 0 01-.8452-1.1338l.54-3.7041a1 1 0 011.98.289l-.5405 3.7041A1.0006 1.0006 0 0190.3574 92.916zM83.8384 73.0254a.9159.9159 0 01-.146-.0108 1 1 0 01-.8452-1.1337l.54-3.7041a.9888.9888 0 011.1343-.8448 1 1 0 01.8452 1.1338l-.54 3.7041A1.0006 1.0006 0 0183.8384 73.0254zM84.7788 60.6343a1.0494 1.0494 0 01-.146-.01 1.0008 1.0008 0 01-.8452-1.1343l.5405-3.7041a1 1 0 011.9795.2891l-.54 3.7041A1 1 0 0184.7788 60.6343zM101.229 77.748a.9284.9284 0 01-.146-.0107 1 1 0 01-.8452-1.1338l.5405-3.7041a1 1 0 011.98.2891l-.5405 3.7041A1.0006 1.0006 0 01101.229 77.748zM92.7129 82.53a.9286.9286 0 01-.146-.0108 1 1 0 01-.8452-1.1338l.5405-3.7041a1 1 0 011.9795.2891l-.54 3.7041A1.0006 1.0006 0 0192.7129 82.53zM93.6533 70.1387a.9286.9286 0 01-.146-.0108 1 1 0 01-.8452-1.1338l.5405-3.7041a1 1 0 011.98.2891l-.5405 3.7041A1.0006 1.0006 0 0193.6533 70.1387zM94.5938 57.7476a1.0638 1.0638 0 01-.146-.01 1.0009 1.0009 0 01-.8453-1.1343l.5406-3.7041a1 1 0 011.98.2891l-.5406 3.7041A1 1 0 0194.5938 57.7476zM95.5342 45.356a1.0638 1.0638 0 01-.146-.01 1.0008 1.0008 0 01-.8452-1.1343l.54-3.7041a1 1 0 011.98.2891l-.5405 3.7041A1 1 0 0195.5342 45.356zM79.7227 106.8525a.9275.9275 0 01-.146-.0107 1 1 0 01-.8453-1.1338l.5406-3.7051a1 1 0 011.9795.2891l-.5406 3.7051A1.0005 1.0005 0 0179.7227 106.8525zM103.4683 67.252a.9277.9277 0 01-.146-.0108 1 1 0 01-.8452-1.1338l.5405-3.7036a1 1 0 111.98.2891l-.5406 3.7036A1.0005 1.0005 0 01103.4683 67.252zM104.4087 54.8608a1.0647 1.0647 0 01-.146-.01 1.0008 1.0008 0 01-.8452-1.1343l.54-3.7041a1 1 0 011.98.2891l-.54 3.7041A1 1 0 01104.4087 54.8608zM64 100.582a1 1 0 01-1-1V96.0107a1 1 0 112 0V99.582A1 1 0 0164 100.582zM64 88.1631a1 1 0 01-1-1v-3.57a1 1 0 012 0v3.57A1 1 0 0164 88.1631zM64 75.7451a1 1 0 01-1-1v-3.57a1 1 0 012 0v3.57A1 1 0 0164 75.7451zM64 63.3271a1 1 0 01-1-1V58.7563a1 1 0 012 0v3.5708A1 1 0 0164 63.3271z"></path>
  <path fill="#2c4c31" d="M64.0063,34.02a20.9713,20.9713,0,0,1-4.9262-.477,1,1,0,0,1,.5107-1.9336,19.6468,19.6468,0,0,0,4.4155.4106,18.7008,18.7008,0,0,0,4.3462-.4087A1,1,0,0,1,68.88,33.54,20.0584,20.0584,0,0,1,64.0063,34.02Z"></path>
</svg>