<svg xmlns="http://www.w3.org/2000/svg" viewBox="0 0 128 128" id="watermelon">
  <path fill="#3d7546" d="M98.0186,101.1266a50.6,50.6,0,1,1-41.01-82.3l3.4589.0093a50.6462,50.6462,0,0,1,47.5259,61.5871Z"></path>
  <path fill="#315b35" d="M94.0676,33.3344A62.9494,62.9494,0,0,1,48.4609,88.0291a62.6277,62.6277,0,0,1-37.3-1.0007,50.6083,50.6083,0,0,0,86.8577,14.0982l9.9751-20.7033A50.6572,50.6572,0,0,0,94.0676,33.3344Z"></path>
  <path fill="#2a422b" d="M56.1972,25.8473a16.1106,16.1106,0,0,1,9.082-16.286,14.18,14.18,0,0,1,16.4241,2.5442l-3.2541,3.0791a9.6994,9.6994,0,0,0-11.1978-1.6c-9.2532,4.5359-5.8966,14.8147-6.5487,12.38Z"></path>
  <path fill="#203321" d="M78.4492,15.1846l2.1763-2.0593A12.9927,12.9927,0,0,0,66.492,11.792c-7.6723,3.6867-8.3108,9.8219-8.2378,14.1088l2.4485.0636c.6521,2.4347-2.7045-7.8442,6.5486-12.38A9.7,9.7,0,0,1,78.4492,15.1846Z"></path>
  <path fill="#7fbf6a" d="M25.2729,57.1356l5.464-6.5429,2.3418-7.1172,10.1474-5.0737,3.1223-5.0737V27.864l-9.7572.8366s-4.6834,8.53-5.8543,9.3109-6.6348,2.732-8.196,3.9029-3.9028,10.928-3.9028,10.928-4.2933,5.464-5.0738,7.0252,1.1709,9.97.39,10.8395c-.7641.8507-4.0021,11.6678-4.1387,12.1247A50.2485,50.2485,0,0,0,13.72,92.7646l4.5274-8.1177V73.9179l7.0252-6.6349Z"></path>
  <polygon fill="#7fbf6a" points="86.333 87.362 81.703 75.089 83.426 71.576 79.523 66.893 81.703 57.916 78.742 51.672 80.303 43.866 74.059 35.279 67.034 37.231 72.107 45.427 68.204 56.355 72.107 62.6 68.913 73.137 71.717 77.883 64.913 94.615 86.333 87.362"></polygon>
  <path fill="#7fbf6a" d="M54.9348 37.2309L44.397 48.5493 42.8358 59.087l-5.464 9.7572.39 10.9478-4.6834 7.6885 1.3362 8.03-5.6294 6.3334 1.8309 9.7122a50.3331 50.3331 0 0015.3771 6.86L44.0067 96.5546l3.5126-6.6664-1.9514-5.2413L49.861 76.65 48.69 68.8442l7.4334-9.7572L54.9348 50.11l3.664-11.7086zM85.2743 26.41l-5.7515 3.7959 8.7323 4.6835L89.67 42.3046l7.143 6.6349-.5081 8.1961 5.0737 5.22-.39 5.8026 2.3417 1.2429-4.238 11 9.127-1.1419A50.5245 50.5245 0 0085.2743 26.41z"></path>
  <path fill="#669b50" d="M94.0651 33.36a62.7112 62.7112 0 01-2.0631 11.111l4.8113 4.469-.5081 8.1961 5.0737 5.22-.39 5.8026 2.3417 1.2429-4.238 11 9.127-1.1419A50.4235 50.4235 0 0094.0651 33.36zM83.4257 71.5762l-3.4413-4.1295a62.8 62.8 0 01-9.0989 9.0284l.8316 1.4076-6.804 16.732 21.42-7.2528-4.63-12.2732zM46.9688 88.41a63.0062 63.0062 0 01-13.4122 1.9428l.8583 5.158-5.6294 6.3334 1.8309 9.7122a50.3331 50.3331 0 0015.3771 6.86L44.0067 96.5546l3.5126-6.6664zM11.1907 87.0388a50.32 50.32 0 002.53 5.7258l2.3832-4.273Q13.6134 87.8651 11.1907 87.0388z"></path>
  <path fill="#3d7546" d="M98.6587,76.1893l21.2755-8.031A47.2562,47.2562,0,0,1,34.4149,100.44l21.3982-8.0773Z"></path>
  <path fill="#afd8a0" d="M118.4055,68.7354,98.6587,76.1893,55.8131,92.3624,36.1145,99.7982c12.7778,15.8615,33.8622,22.7556,52.8871,15.5742S119.2962,89.084,118.4055,68.7354Z"></path>
  <path fill="#db2e40" d="M113.182,70.7071A40.319,40.319,0,0,1,41.1671,97.8909Z"></path>
  <path fill="#c61e32" d="M113.182,70.7071,97.47,76.6381a54.2633,54.2633,0,0,1-31.31,36.167,40.3193,40.3193,0,0,0,47.0222-42.098Z"></path>
  <path fill="#382326" d="M62.688 100.5107a1 1 0 01-.8945-1.4443l1.9389-3.9043a1 1 0 111.791.8887l-1.9389 3.9043A.9981.9981 0 0162.688 100.5107zM75.7637 102.8438a1 1 0 01-.9971-.9375l-.2729-4.3516a1 1 0 111.996-.125l.273 4.3516a1 1 0 01-.9356 1.0605C75.8062 102.8428 75.7847 102.8438 75.7637 102.8438zM88.2559 98.3262a1.0006 1.0006 0 01-.834-.4463L85.01 94.248a1 1 0 011.666-1.1074l2.4121 3.6319a1 1 0 01-.832 1.5537zM96.8125 88.1689a.992.992 0 01-.4438-.1044L92.4639 86.125a1 1 0 11.89-1.791l3.9048 1.9394a1 1 0 01-.4458 1.8955z"></path>
  <path fill="#28422b" d="M59.2134,27.3325a23.6453,23.6453,0,0,1-6.7373-.9541,1,1,0,1,1,.5674-1.918,24.112,24.112,0,0,0,12.9726-.0322,1,1,0,1,1,.4981,1.937A29.33,29.33,0,0,1,59.2134,27.3325Z"></path>
</svg>